<mxfile host="app.diagrams.net" modified="2021-02-03T07:19:08.935Z" agent="5.0 (Windows NT 10.0; WOW64) AppleWebKit/537.36 (KHTML, like Gecko) Chrome/86.0.4240.198 Safari/537.36" etag="semveO_vkAtpR2onnn5F" version="13.8.8" type="github" pages="3">
  <diagram id="gE42BKl88uLbt6vD5m_b" name="Aggregation Summary">
    <mxGraphModel dx="1234" dy="437" grid="1" gridSize="10" guides="1" tooltips="1" connect="1" arrows="1" fold="1" page="1" pageScale="1" pageWidth="850" pageHeight="1100" math="0" shadow="0">
      <root>
        <mxCell id="0" />
        <mxCell id="1" parent="0" />
        <mxCell id="b96Z--FaAQciaPmejpgh-1" value="Parent&lt;br&gt;Event" style="ellipse;whiteSpace=wrap;html=1;" parent="1" vertex="1">
          <mxGeometry x="25" y="150" width="70" height="60" as="geometry" />
        </mxCell>
        <mxCell id="b96Z--FaAQciaPmejpgh-4" value="" style="endArrow=classic;html=1;" parent="1" edge="1">
          <mxGeometry width="50" height="50" relative="1" as="geometry">
            <mxPoint x="90" y="179.5" as="sourcePoint" />
            <mxPoint x="147" y="179.5" as="targetPoint" />
            <Array as="points" />
          </mxGeometry>
        </mxCell>
        <mxCell id="b96Z--FaAQciaPmejpgh-12" style="edgeStyle=orthogonalEdgeStyle;rounded=0;orthogonalLoop=1;jettySize=auto;html=1;exitX=1;exitY=0.5;exitDx=0;exitDy=0;entryX=0;entryY=0.5;entryDx=0;entryDy=0;" parent="1" source="b96Z--FaAQciaPmejpgh-5" target="b96Z--FaAQciaPmejpgh-6" edge="1">
          <mxGeometry relative="1" as="geometry" />
        </mxCell>
        <mxCell id="b96Z--FaAQciaPmejpgh-5" value="itsm_ingestion_&lt;br&gt;playbook" style="shape=process;whiteSpace=wrap;html=1;backgroundOutline=1;" parent="1" vertex="1">
          <mxGeometry x="150" y="160" width="120" height="40" as="geometry" />
        </mxCell>
        <mxCell id="b96Z--FaAQciaPmejpgh-13" style="edgeStyle=orthogonalEdgeStyle;rounded=0;orthogonalLoop=1;jettySize=auto;html=1;entryX=0;entryY=0.5;entryDx=0;entryDy=0;" parent="1" source="b96Z--FaAQciaPmejpgh-6" target="b96Z--FaAQciaPmejpgh-7" edge="1">
          <mxGeometry relative="1" as="geometry" />
        </mxCell>
        <mxCell id="b96Z--FaAQciaPmejpgh-6" value="aggregation&lt;br&gt;_playbook" style="shape=process;whiteSpace=wrap;html=1;backgroundOutline=1;strokeWidth=1;fillColor=#B3B3B3;" parent="1" vertex="1">
          <mxGeometry x="305" y="160" width="105" height="40" as="geometry" />
        </mxCell>
        <mxCell id="b96Z--FaAQciaPmejpgh-16" style="edgeStyle=orthogonalEdgeStyle;rounded=0;orthogonalLoop=1;jettySize=auto;html=1;entryX=0;entryY=0.5;entryDx=0;entryDy=0;" parent="1" source="b96Z--FaAQciaPmejpgh-7" target="b96Z--FaAQciaPmejpgh-9" edge="1">
          <mxGeometry relative="1" as="geometry" />
        </mxCell>
        <mxCell id="b96Z--FaAQciaPmejpgh-7" value="itsm_parser&lt;br&gt;_playbook" style="shape=process;whiteSpace=wrap;html=1;backgroundOutline=1;fillColor=#B3B3B3;" parent="1" vertex="1">
          <mxGeometry x="450" y="160" width="110" height="40" as="geometry" />
        </mxCell>
        <mxCell id="b96Z--FaAQciaPmejpgh-33" value="" style="edgeStyle=orthogonalEdgeStyle;rounded=0;orthogonalLoop=1;jettySize=auto;html=1;" parent="1" source="b96Z--FaAQciaPmejpgh-9" target="b96Z--FaAQciaPmejpgh-32" edge="1">
          <mxGeometry relative="1" as="geometry">
            <Array as="points">
              <mxPoint x="670" y="90" />
            </Array>
          </mxGeometry>
        </mxCell>
        <mxCell id="b96Z--FaAQciaPmejpgh-9" value="phishing_detection_&lt;br&gt;v2_playbook" style="shape=process;whiteSpace=wrap;html=1;backgroundOutline=1;fillColor=#B3B3B3;" parent="1" vertex="1">
          <mxGeometry x="610" y="160" width="155" height="40" as="geometry" />
        </mxCell>
        <mxCell id="b96Z--FaAQciaPmejpgh-20" style="edgeStyle=orthogonalEdgeStyle;rounded=0;orthogonalLoop=1;jettySize=auto;html=1;" parent="1" source="b96Z--FaAQciaPmejpgh-19" target="b96Z--FaAQciaPmejpgh-21" edge="1">
          <mxGeometry relative="1" as="geometry">
            <mxPoint x="135" y="320" as="targetPoint" />
          </mxGeometry>
        </mxCell>
        <mxCell id="b96Z--FaAQciaPmejpgh-19" value="Aggregated&lt;br&gt;Event" style="ellipse;whiteSpace=wrap;html=1;" parent="1" vertex="1">
          <mxGeometry x="20" y="467.5" width="80" height="75" as="geometry" />
        </mxCell>
        <mxCell id="b96Z--FaAQciaPmejpgh-23" style="edgeStyle=orthogonalEdgeStyle;rounded=0;orthogonalLoop=1;jettySize=auto;html=1;entryX=0;entryY=0.5;entryDx=0;entryDy=0;" parent="1" source="b96Z--FaAQciaPmejpgh-21" target="b96Z--FaAQciaPmejpgh-22" edge="1">
          <mxGeometry relative="1" as="geometry">
            <mxPoint x="275" y="320" as="targetPoint" />
          </mxGeometry>
        </mxCell>
        <mxCell id="b96Z--FaAQciaPmejpgh-21" value="&lt;span&gt;itsm_ingestion_&lt;/span&gt;&lt;br&gt;&lt;span&gt;playbook&lt;/span&gt;" style="shape=process;whiteSpace=wrap;html=1;backgroundOutline=1;" parent="1" vertex="1">
          <mxGeometry x="125" y="485" width="120" height="40" as="geometry" />
        </mxCell>
        <mxCell id="b96Z--FaAQciaPmejpgh-24" style="edgeStyle=orthogonalEdgeStyle;rounded=0;orthogonalLoop=1;jettySize=auto;html=1;" parent="1" source="b96Z--FaAQciaPmejpgh-22" target="b96Z--FaAQciaPmejpgh-25" edge="1">
          <mxGeometry relative="1" as="geometry">
            <mxPoint x="445" y="320" as="targetPoint" />
          </mxGeometry>
        </mxCell>
        <mxCell id="b96Z--FaAQciaPmejpgh-22" value="aggregation&lt;br&gt;_playbook" style="shape=process;whiteSpace=wrap;html=1;backgroundOutline=1;fillColor=#B3B3B3;" parent="1" vertex="1">
          <mxGeometry x="285" y="485" width="120" height="40" as="geometry" />
        </mxCell>
        <mxCell id="b96Z--FaAQciaPmejpgh-48" style="edgeStyle=orthogonalEdgeStyle;rounded=0;orthogonalLoop=1;jettySize=auto;html=1;exitX=1;exitY=0.5;exitDx=0;exitDy=0;strokeColor=#000000;" parent="1" source="b96Z--FaAQciaPmejpgh-25" target="b96Z--FaAQciaPmejpgh-49" edge="1">
          <mxGeometry relative="1" as="geometry">
            <mxPoint x="585" y="450" as="targetPoint" />
          </mxGeometry>
        </mxCell>
        <mxCell id="b96Z--FaAQciaPmejpgh-67" style="edgeStyle=orthogonalEdgeStyle;rounded=0;orthogonalLoop=1;jettySize=auto;html=1;exitX=1;exitY=0.75;exitDx=0;exitDy=0;entryX=0.5;entryY=1;entryDx=0;entryDy=0;strokeColor=#000000;" parent="1" source="b96Z--FaAQciaPmejpgh-25" target="b96Z--FaAQciaPmejpgh-19" edge="1">
          <mxGeometry relative="1" as="geometry">
            <Array as="points">
              <mxPoint x="585" y="515" />
              <mxPoint x="585" y="590" />
              <mxPoint x="60" y="590" />
            </Array>
          </mxGeometry>
        </mxCell>
        <mxCell id="b96Z--FaAQciaPmejpgh-25" value="&lt;span&gt;itsm_parser&lt;/span&gt;&lt;br&gt;&lt;span&gt;_playbook&lt;/span&gt;" style="shape=process;whiteSpace=wrap;html=1;backgroundOutline=1;fillColor=#B3B3B3;" parent="1" vertex="1">
          <mxGeometry x="445" y="485" width="120" height="40" as="geometry" />
        </mxCell>
        <mxCell id="b96Z--FaAQciaPmejpgh-29" style="edgeStyle=orthogonalEdgeStyle;rounded=0;orthogonalLoop=1;jettySize=auto;html=1;exitX=1;exitY=0.5;exitDx=0;exitDy=0;" parent="1" source="b96Z--FaAQciaPmejpgh-27" target="b96Z--FaAQciaPmejpgh-30" edge="1">
          <mxGeometry relative="1" as="geometry">
            <mxPoint x="605" y="360" as="targetPoint" />
            <Array as="points">
              <mxPoint x="1110" y="500" />
              <mxPoint x="1030" y="500" />
              <mxPoint x="1030" y="410" />
              <mxPoint x="650" y="410" />
            </Array>
          </mxGeometry>
        </mxCell>
        <mxCell id="b96Z--FaAQciaPmejpgh-27" value="&lt;span&gt;phishing_detection_&lt;/span&gt;&lt;br&gt;&lt;span&gt;v2_playbook on &#39;Unique&#39; tagged artifacts&lt;/span&gt;" style="shape=process;whiteSpace=wrap;html=1;backgroundOutline=1;fillColor=#B3B3B3;" parent="1" vertex="1">
          <mxGeometry x="960" y="465" width="150" height="80" as="geometry" />
        </mxCell>
        <mxCell id="b96Z--FaAQciaPmejpgh-31" style="edgeStyle=orthogonalEdgeStyle;rounded=0;orthogonalLoop=1;jettySize=auto;html=1;" parent="1" source="b96Z--FaAQciaPmejpgh-30" target="b96Z--FaAQciaPmejpgh-1" edge="1">
          <mxGeometry relative="1" as="geometry">
            <Array as="points">
              <mxPoint x="640" y="230" />
              <mxPoint x="60" y="230" />
            </Array>
          </mxGeometry>
        </mxCell>
        <mxCell id="b96Z--FaAQciaPmejpgh-30" value="Create New Notes with aggreaged event summary&lt;br&gt;(&lt;b&gt;Markdown Syntax&lt;/b&gt;)" style="shape=note;whiteSpace=wrap;html=1;backgroundOutline=1;darkOpacity=0.05;fillColor=#FFFFFF;strokeColor=#97D077;" parent="1" vertex="1">
          <mxGeometry x="595" y="250" width="135" height="120" as="geometry" />
        </mxCell>
        <mxCell id="b96Z--FaAQciaPmejpgh-35" value="" style="edgeStyle=orthogonalEdgeStyle;rounded=0;orthogonalLoop=1;jettySize=auto;html=1;entryX=0.343;entryY=0;entryDx=0;entryDy=0;entryPerimeter=0;" parent="1" source="b96Z--FaAQciaPmejpgh-32" target="b96Z--FaAQciaPmejpgh-1" edge="1">
          <mxGeometry relative="1" as="geometry" />
        </mxCell>
        <mxCell id="b96Z--FaAQciaPmejpgh-32" value="Add New Notes&lt;br&gt;(&lt;b&gt;Markdown Syntax&lt;/b&gt;)" style="shape=note;whiteSpace=wrap;html=1;backgroundOutline=1;darkOpacity=0.05;strokeColor=#97D077;" parent="1" vertex="1">
          <mxGeometry x="420" y="30" width="130" height="110" as="geometry" />
        </mxCell>
        <mxCell id="b96Z--FaAQciaPmejpgh-39" style="edgeStyle=orthogonalEdgeStyle;rounded=0;orthogonalLoop=1;jettySize=auto;html=1;entryX=0.5;entryY=1;entryDx=0;entryDy=0;" parent="1" source="b96Z--FaAQciaPmejpgh-36" target="b96Z--FaAQciaPmejpgh-1" edge="1">
          <mxGeometry relative="1" as="geometry">
            <Array as="points">
              <mxPoint x="430" y="250" />
              <mxPoint x="60" y="250" />
            </Array>
          </mxGeometry>
        </mxCell>
        <mxCell id="b96Z--FaAQciaPmejpgh-36" value="Add Unique (url/filehash) Artifacts to parent" style="shape=note;whiteSpace=wrap;html=1;backgroundOutline=1;darkOpacity=0.05;size=20;" parent="1" vertex="1">
          <mxGeometry x="385" y="270" width="120" height="100" as="geometry" />
        </mxCell>
        <mxCell id="b96Z--FaAQciaPmejpgh-54" value="" style="edgeStyle=orthogonalEdgeStyle;rounded=0;orthogonalLoop=1;jettySize=auto;html=1;" parent="1" source="b96Z--FaAQciaPmejpgh-49" target="b96Z--FaAQciaPmejpgh-53" edge="1">
          <mxGeometry relative="1" as="geometry" />
        </mxCell>
        <mxCell id="b96Z--FaAQciaPmejpgh-61" value="" style="edgeStyle=orthogonalEdgeStyle;rounded=0;orthogonalLoop=1;jettySize=auto;html=1;strokeColor=#000000;entryX=0.603;entryY=1.007;entryDx=0;entryDy=0;entryPerimeter=0;" parent="1" source="b96Z--FaAQciaPmejpgh-49" target="b96Z--FaAQciaPmejpgh-36" edge="1">
          <mxGeometry relative="1" as="geometry">
            <Array as="points">
              <mxPoint x="760" y="505" />
              <mxPoint x="760" y="440" />
              <mxPoint x="457" y="440" />
            </Array>
          </mxGeometry>
        </mxCell>
        <mxCell id="b96Z--FaAQciaPmejpgh-65" style="edgeStyle=orthogonalEdgeStyle;rounded=0;orthogonalLoop=1;jettySize=auto;html=1;exitX=1;exitY=0.5;exitDx=0;exitDy=0;entryX=0;entryY=0.5;entryDx=0;entryDy=0;strokeColor=#000000;" parent="1" source="b96Z--FaAQciaPmejpgh-49" target="b96Z--FaAQciaPmejpgh-56" edge="1">
          <mxGeometry relative="1" as="geometry" />
        </mxCell>
        <mxCell id="b96Z--FaAQciaPmejpgh-49" value="Unique &lt;br&gt;Artifacts check&lt;br&gt;(compare with parent )" style="rhombus;whiteSpace=wrap;html=1;" parent="1" vertex="1">
          <mxGeometry x="620" y="449.22" width="110" height="111.56" as="geometry" />
        </mxCell>
        <mxCell id="b96Z--FaAQciaPmejpgh-52" value="Yes" style="text;html=1;align=center;verticalAlign=middle;resizable=0;points=[];autosize=1;" parent="1" vertex="1">
          <mxGeometry x="735" y="515" width="30" height="20" as="geometry" />
        </mxCell>
        <mxCell id="b96Z--FaAQciaPmejpgh-53" value="End" style="whiteSpace=wrap;html=1;" parent="1" vertex="1">
          <mxGeometry x="615" y="590" width="120" height="26.88" as="geometry" />
        </mxCell>
        <mxCell id="b96Z--FaAQciaPmejpgh-55" value="No" style="text;html=1;align=center;verticalAlign=middle;resizable=0;points=[];autosize=1;" parent="1" vertex="1">
          <mxGeometry x="635" y="560.78" width="30" height="20" as="geometry" />
        </mxCell>
        <mxCell id="b96Z--FaAQciaPmejpgh-57" style="edgeStyle=orthogonalEdgeStyle;rounded=0;orthogonalLoop=1;jettySize=auto;html=1;entryX=0;entryY=0.5;entryDx=0;entryDy=0;strokeColor=#000000;" parent="1" source="b96Z--FaAQciaPmejpgh-56" target="b96Z--FaAQciaPmejpgh-27" edge="1">
          <mxGeometry relative="1" as="geometry" />
        </mxCell>
        <mxCell id="b96Z--FaAQciaPmejpgh-56" value="Add unique tag to Artifacts" style="shape=hexagon;perimeter=hexagonPerimeter2;whiteSpace=wrap;html=1;fixedSize=1;" parent="1" vertex="1">
          <mxGeometry x="820" y="475" width="110" height="60" as="geometry" />
        </mxCell>
        <mxCell id="b96Z--FaAQciaPmejpgh-68" value="Add Artifacts" style="text;html=1;align=center;verticalAlign=middle;resizable=0;points=[];autosize=1;" parent="1" vertex="1">
          <mxGeometry x="250" y="570" width="80" height="20" as="geometry" />
        </mxCell>
        <mxCell id="fnr5mTM9cUQArctGiF-l-1" value="&lt;b&gt;other Playbooks Updated&lt;/b&gt;:: (which run within phishing_detection_v2_playbook)&lt;br&gt;&lt;br&gt;1. virustotal_playbook&lt;br&gt;2. zscaler_lookup&lt;br&gt;3. netcraft_playbook&lt;br&gt;&lt;br&gt;&lt;b&gt;Custom Fields on aggregated event&lt;/b&gt;:&lt;br&gt;1. remedy_incident_id&lt;br&gt;2. submitted_date&lt;br&gt;3. source&lt;br&gt;4. rule_alert_name&lt;br&gt;5. event_severity&lt;br&gt;&lt;br&gt;Disabled Active from the playbook settings." style="whiteSpace=wrap;html=1;aspect=fixed;align=left;spacingTop=0;spacingLeft=10;" parent="1" vertex="1">
          <mxGeometry x="1000" y="650" width="240" height="240" as="geometry" />
        </mxCell>
        <mxCell id="GDLRz4vSRAY1XBXaF-vw-1" value="" style="endArrow=none;dashed=1;html=1;strokeColor=#FF3333;" parent="1" edge="1">
          <mxGeometry width="50" height="50" relative="1" as="geometry">
            <mxPoint x="420" y="730" as="sourcePoint" />
            <mxPoint x="420" y="390" as="targetPoint" />
          </mxGeometry>
        </mxCell>
      </root>
    </mxGraphModel>
  </diagram>
  <diagram id="kWyBnaxBHq6z5zCMUona" name="Summary Object">
    <mxGraphModel dx="782" dy="437" grid="1" gridSize="10" guides="1" tooltips="1" connect="1" arrows="1" fold="1" page="1" pageScale="1" pageWidth="850" pageHeight="1100" math="0" shadow="0">
      <root>
        <mxCell id="Uzh9qxh1pEm_OjEc7MrS-0" />
        <mxCell id="Uzh9qxh1pEm_OjEc7MrS-1" parent="Uzh9qxh1pEm_OjEc7MrS-0" />
        <mxCell id="9FdUsDpdbuUubvHddjhA-1" value="" style="dashed=0;outlineConnect=0;html=1;align=center;labelPosition=center;verticalLabelPosition=bottom;verticalAlign=top;shape=mxgraph.weblogos.json_2;strokeColor=#97D077;strokeWidth=1;fillColor=#FFFFFF;" parent="Uzh9qxh1pEm_OjEc7MrS-1" vertex="1">
          <mxGeometry x="100" y="35.2" width="80.4" height="25.200000000000003" as="geometry" />
        </mxCell>
        <mxCell id="4Nl-ElpUadaNBDXM-pfR-3" style="edgeStyle=orthogonalEdgeStyle;rounded=0;orthogonalLoop=1;jettySize=auto;html=1;exitX=1;exitY=0.5;exitDx=0;exitDy=0;strokeColor=#000000;" parent="Uzh9qxh1pEm_OjEc7MrS-1" source="4Nl-ElpUadaNBDXM-pfR-0" target="4Nl-ElpUadaNBDXM-pfR-4" edge="1">
          <mxGeometry relative="1" as="geometry">
            <mxPoint x="400" y="235" as="targetPoint" />
          </mxGeometry>
        </mxCell>
        <mxCell id="4Nl-ElpUadaNBDXM-pfR-0" value="{&lt;br&gt;&lt;br&gt;&quot;phishing_summary&quot;: {&lt;br&gt;&amp;nbsp; &amp;nbsp; &amp;nbsp;&quot;heading&quot;: &quot;&quot;,&lt;br&gt;&amp;nbsp; &amp;nbsp; &amp;nbsp;&quot;header_info&quot;: &quot;&quot;,&lt;br&gt;&amp;nbsp; &amp;nbsp; &amp;nbsp;&quot;urls&quot;:&quot;&quot;,&lt;br&gt;&amp;nbsp; &amp;nbsp; &amp;nbsp;&quot;attachments&quot;: &quot;&quot;&lt;br&gt;&amp;nbsp; &amp;nbsp; &amp;nbsp;-------------&lt;br&gt;&amp;nbsp; &amp;nbsp; &amp;nbsp;-------------&lt;br&gt;&amp;nbsp; &amp;nbsp; &amp;nbsp;-------------&lt;br&gt;},&lt;br&gt;&lt;br&gt;aggregated_events: {&lt;br&gt;&amp;nbsp; &amp;nbsp;16161: {},&lt;br&gt;&amp;nbsp; &amp;nbsp;16162: {},&amp;nbsp;&lt;br&gt;&amp;nbsp; &amp;nbsp;16163: {},&lt;br&gt;&amp;nbsp; &amp;nbsp;-------------,&lt;br&gt;&amp;nbsp; &amp;nbsp;-------------&amp;nbsp; &amp;nbsp;&lt;br&gt;&amp;nbsp;}&lt;br&gt;}" style="whiteSpace=wrap;html=1;aspect=fixed;strokeColor=#97D077;strokeWidth=1;fillColor=#FFFFFF;align=left;spacingLeft=14;" parent="Uzh9qxh1pEm_OjEc7MrS-1" vertex="1">
          <mxGeometry x="60" y="100" width="300" height="300" as="geometry" />
        </mxCell>
        <mxCell id="4Nl-ElpUadaNBDXM-pfR-2" value="On parent&amp;nbsp; container object &lt;br&gt;data will stored and aggregated data will be created &lt;br&gt;only if it found unique artifacts found in the event" style="text;html=1;align=center;verticalAlign=middle;resizable=0;points=[];autosize=1;" parent="Uzh9qxh1pEm_OjEc7MrS-1" vertex="1">
          <mxGeometry x="290" y="10.400000000000002" width="290" height="50" as="geometry" />
        </mxCell>
        <mxCell id="4Nl-ElpUadaNBDXM-pfR-4" value="Create Markup &lt;br&gt;notes&amp;nbsp;" style="shape=note;whiteSpace=wrap;html=1;backgroundOutline=1;darkOpacity=0.05;" parent="Uzh9qxh1pEm_OjEc7MrS-1" vertex="1">
          <mxGeometry x="430" y="182.5" width="120" height="105" as="geometry" />
        </mxCell>
        <mxCell id="eevsJihTxQqJfoY1fchV-0" value="&lt;font style=&quot;font-size: 15px&quot;&gt;phantom.update(container,{&#39;data&#39;: summary_object})&lt;/font&gt;" style="whiteSpace=wrap;html=1;align=center;strokeColor=#FFFFFF;" parent="Uzh9qxh1pEm_OjEc7MrS-1" vertex="1">
          <mxGeometry x="280" y="440" width="370" height="40" as="geometry" />
        </mxCell>
      </root>
    </mxGraphModel>
  </diagram>
  <diagram id="GJNvkfT7QfhBnJunS7r-" name="Page-3">
    <mxGraphModel dx="994" dy="437" grid="1" gridSize="10" guides="1" tooltips="1" connect="1" arrows="1" fold="1" page="1" pageScale="1" pageWidth="850" pageHeight="1100" math="0" shadow="0">
      <root>
        <mxCell id="jjxk6rm0DJR1onn1oSPT-0" />
        <mxCell id="jjxk6rm0DJR1onn1oSPT-1" parent="jjxk6rm0DJR1onn1oSPT-0" />
        <mxCell id="jjxk6rm0DJR1onn1oSPT-3" style="edgeStyle=orthogonalEdgeStyle;rounded=0;orthogonalLoop=1;jettySize=auto;html=1;" parent="jjxk6rm0DJR1onn1oSPT-1" source="jjxk6rm0DJR1onn1oSPT-2" edge="1">
          <mxGeometry relative="1" as="geometry">
            <mxPoint x="170" y="157.5" as="targetPoint" />
          </mxGeometry>
        </mxCell>
        <mxCell id="jjxk6rm0DJR1onn1oSPT-7" style="edgeStyle=orthogonalEdgeStyle;rounded=0;orthogonalLoop=1;jettySize=auto;html=1;" parent="jjxk6rm0DJR1onn1oSPT-1" source="jjxk6rm0DJR1onn1oSPT-2" edge="1">
          <mxGeometry relative="1" as="geometry">
            <mxPoint x="85" y="232.5" as="targetPoint" />
          </mxGeometry>
        </mxCell>
        <mxCell id="jjxk6rm0DJR1onn1oSPT-2" value="start" style="ellipse;whiteSpace=wrap;html=1;" parent="jjxk6rm0DJR1onn1oSPT-1" vertex="1">
          <mxGeometry x="40" y="142.5" width="90" height="30" as="geometry" />
        </mxCell>
        <mxCell id="jjxk6rm0DJR1onn1oSPT-8" style="edgeStyle=orthogonalEdgeStyle;rounded=0;orthogonalLoop=1;jettySize=auto;html=1;" parent="jjxk6rm0DJR1onn1oSPT-1" source="jjxk6rm0DJR1onn1oSPT-6" edge="1">
          <mxGeometry relative="1" as="geometry">
            <mxPoint x="290" y="161.25" as="targetPoint" />
          </mxGeometry>
        </mxCell>
        <mxCell id="jjxk6rm0DJR1onn1oSPT-6" value="Add Ip in unix auth" style="whiteSpace=wrap;html=1;" parent="jjxk6rm0DJR1onn1oSPT-1" vertex="1">
          <mxGeometry x="170" y="140" width="80" height="42.5" as="geometry" />
        </mxCell>
        <mxCell id="jjxk6rm0DJR1onn1oSPT-10" style="edgeStyle=orthogonalEdgeStyle;rounded=0;orthogonalLoop=1;jettySize=auto;html=1;" parent="jjxk6rm0DJR1onn1oSPT-1" source="jjxk6rm0DJR1onn1oSPT-9" edge="1">
          <mxGeometry relative="1" as="geometry">
            <mxPoint x="440" y="162.5" as="targetPoint" />
          </mxGeometry>
        </mxCell>
        <mxCell id="jjxk6rm0DJR1onn1oSPT-9" value="Add ip in asset&amp;nbsp;&lt;br&gt;group" style="whiteSpace=wrap;html=1;" parent="jjxk6rm0DJR1onn1oSPT-1" vertex="1">
          <mxGeometry x="290" y="142.5" width="100" height="40" as="geometry" />
        </mxCell>
        <mxCell id="jjxk6rm0DJR1onn1oSPT-13" style="edgeStyle=orthogonalEdgeStyle;rounded=0;orthogonalLoop=1;jettySize=auto;html=1;" parent="jjxk6rm0DJR1onn1oSPT-1" source="jjxk6rm0DJR1onn1oSPT-12" edge="1">
          <mxGeometry relative="1" as="geometry">
            <mxPoint x="560" y="162.5" as="targetPoint" />
          </mxGeometry>
        </mxCell>
        <mxCell id="jjxk6rm0DJR1onn1oSPT-12" value="Scan using opt1" style="whiteSpace=wrap;html=1;strokeColor=#FF3333;" parent="jjxk6rm0DJR1onn1oSPT-1" vertex="1">
          <mxGeometry x="440" y="142.5" width="90" height="40" as="geometry" />
        </mxCell>
        <mxCell id="l0pJUpO-Kfidr93NYYCC-0" style="edgeStyle=orthogonalEdgeStyle;rounded=0;orthogonalLoop=1;jettySize=auto;html=1;exitX=1;exitY=0.5;exitDx=0;exitDy=0;entryX=0;entryY=0.5;entryDx=0;entryDy=0;" edge="1" parent="jjxk6rm0DJR1onn1oSPT-1" source="jjxk6rm0DJR1onn1oSPT-14" target="jjxk6rm0DJR1onn1oSPT-16">
          <mxGeometry relative="1" as="geometry" />
        </mxCell>
        <mxCell id="jjxk6rm0DJR1onn1oSPT-14" value="Scan using opt2" style="whiteSpace=wrap;html=1;strokeColor=#FF3333;" parent="jjxk6rm0DJR1onn1oSPT-1" vertex="1">
          <mxGeometry x="560" y="142.5" width="100" height="40" as="geometry" />
        </mxCell>
        <mxCell id="l0pJUpO-Kfidr93NYYCC-1" style="edgeStyle=orthogonalEdgeStyle;rounded=0;orthogonalLoop=1;jettySize=auto;html=1;entryX=0;entryY=0.5;entryDx=0;entryDy=0;" edge="1" parent="jjxk6rm0DJR1onn1oSPT-1" source="jjxk6rm0DJR1onn1oSPT-16" target="jjxk6rm0DJR1onn1oSPT-18">
          <mxGeometry relative="1" as="geometry" />
        </mxCell>
        <mxCell id="jjxk6rm0DJR1onn1oSPT-16" value="generate report&lt;br&gt;&amp;nbsp;(POL-1)" style="whiteSpace=wrap;html=1;" parent="jjxk6rm0DJR1onn1oSPT-1" vertex="1">
          <mxGeometry x="710" y="142.5" width="110" height="40" as="geometry" />
        </mxCell>
        <mxCell id="jjxk6rm0DJR1onn1oSPT-46" style="edgeStyle=orthogonalEdgeStyle;rounded=0;orthogonalLoop=1;jettySize=auto;html=1;" parent="jjxk6rm0DJR1onn1oSPT-1" source="jjxk6rm0DJR1onn1oSPT-18" edge="1">
          <mxGeometry relative="1" as="geometry">
            <mxPoint x="990" y="192.5" as="targetPoint" />
          </mxGeometry>
        </mxCell>
        <mxCell id="jjxk6rm0DJR1onn1oSPT-18" value="Genrate report &lt;br&gt;POL-2" style="whiteSpace=wrap;html=1;" parent="jjxk6rm0DJR1onn1oSPT-1" vertex="1">
          <mxGeometry x="860" y="142.5" width="100" height="40" as="geometry" />
        </mxCell>
        <mxCell id="jjxk6rm0DJR1onn1oSPT-21" style="edgeStyle=orthogonalEdgeStyle;rounded=0;orthogonalLoop=1;jettySize=auto;html=1;" parent="jjxk6rm0DJR1onn1oSPT-1" source="jjxk6rm0DJR1onn1oSPT-20" edge="1">
          <mxGeometry relative="1" as="geometry">
            <mxPoint x="80" y="302.5" as="targetPoint" />
          </mxGeometry>
        </mxCell>
        <mxCell id="jjxk6rm0DJR1onn1oSPT-20" value="Add IP in window Auth" style="whiteSpace=wrap;html=1;" parent="jjxk6rm0DJR1onn1oSPT-1" vertex="1">
          <mxGeometry x="20" y="232.5" width="120" height="40" as="geometry" />
        </mxCell>
        <mxCell id="jjxk6rm0DJR1onn1oSPT-23" style="edgeStyle=orthogonalEdgeStyle;rounded=0;orthogonalLoop=1;jettySize=auto;html=1;exitX=0.5;exitY=1;exitDx=0;exitDy=0;" parent="jjxk6rm0DJR1onn1oSPT-1" source="jjxk6rm0DJR1onn1oSPT-22" edge="1">
          <mxGeometry relative="1" as="geometry">
            <mxPoint x="80" y="372.5" as="targetPoint" />
          </mxGeometry>
        </mxCell>
        <mxCell id="jjxk6rm0DJR1onn1oSPT-22" value="Add IP in IIS Auth" style="whiteSpace=wrap;html=1;" parent="jjxk6rm0DJR1onn1oSPT-1" vertex="1">
          <mxGeometry x="20" y="302.5" width="120" height="40" as="geometry" />
        </mxCell>
        <mxCell id="jjxk6rm0DJR1onn1oSPT-25" style="edgeStyle=orthogonalEdgeStyle;rounded=0;orthogonalLoop=1;jettySize=auto;html=1;" parent="jjxk6rm0DJR1onn1oSPT-1" source="jjxk6rm0DJR1onn1oSPT-24" edge="1">
          <mxGeometry relative="1" as="geometry">
            <mxPoint x="85" y="502.5" as="targetPoint" />
          </mxGeometry>
        </mxCell>
        <mxCell id="jjxk6rm0DJR1onn1oSPT-24" value="Perform scan using&amp;nbsp;&lt;br&gt;OP (&lt;span style=&quot;font-size: 12.0pt ; line-height: 107% ; font-family: &amp;#34;calibri&amp;#34; , sans-serif&quot;&gt;AIVM-Policy Compliance-Web-IIS&lt;/span&gt;&lt;br&gt;)" style="whiteSpace=wrap;html=1;" parent="jjxk6rm0DJR1onn1oSPT-1" vertex="1">
          <mxGeometry x="20" y="372.5" width="130" height="100" as="geometry" />
        </mxCell>
        <mxCell id="jjxk6rm0DJR1onn1oSPT-26" value="Take report&amp;nbsp;&lt;br&gt;&lt;span style=&quot;font-size: 12.0pt ; line-height: 107% ; font-family: &amp;#34;calibri&amp;#34; , sans-serif&quot;&gt;AIVM - Policy Compliance - IIS 10.x&lt;/span&gt;" style="whiteSpace=wrap;html=1;" parent="jjxk6rm0DJR1onn1oSPT-1" vertex="1">
          <mxGeometry x="25" y="502.5" width="120" height="110" as="geometry" />
        </mxCell>
        <mxCell id="jjxk6rm0DJR1onn1oSPT-31" value="" style="edgeStyle=orthogonalEdgeStyle;rounded=0;orthogonalLoop=1;jettySize=auto;html=1;" parent="jjxk6rm0DJR1onn1oSPT-1" source="jjxk6rm0DJR1onn1oSPT-29" target="jjxk6rm0DJR1onn1oSPT-9" edge="1">
          <mxGeometry relative="1" as="geometry" />
        </mxCell>
        <mxCell id="jjxk6rm0DJR1onn1oSPT-29" value="Based on the&lt;br&gt;&amp;nbsp;webpath in remedy, auth_id &lt;br&gt;is decided from&lt;br&gt;&lt;b&gt;&lt;u&gt;&lt;span style=&quot;font-size: 10pt ; font-family: &amp;#34;arial&amp;#34; , sans-serif&quot;&gt;Asset&lt;br&gt;Group:&lt;br&gt;&lt;/span&gt;&lt;/u&gt;&lt;/b&gt;&lt;br&gt;API parameters:&lt;br&gt;&lt;b&gt;os&lt;/b&gt;,&lt;b&gt;ip&lt;/b&gt;,&lt;b&gt;auth_id&lt;/b&gt;&amp;nbsp;" style="text;html=1;align=center;verticalAlign=middle;resizable=0;points=[];autosize=1;" parent="jjxk6rm0DJR1onn1oSPT-1" vertex="1">
          <mxGeometry x="255" y="222.5" width="170" height="120" as="geometry" />
        </mxCell>
        <mxCell id="jjxk6rm0DJR1onn1oSPT-34" value="" style="edgeStyle=orthogonalEdgeStyle;rounded=0;orthogonalLoop=1;jettySize=auto;html=1;" parent="jjxk6rm0DJR1onn1oSPT-1" source="jjxk6rm0DJR1onn1oSPT-33" target="jjxk6rm0DJR1onn1oSPT-12" edge="1">
          <mxGeometry relative="1" as="geometry" />
        </mxCell>
        <mxCell id="jjxk6rm0DJR1onn1oSPT-33" value="Based on&lt;br&gt;&amp;nbsp;the webpath, opt1 id&lt;br&gt;&amp;nbsp;is decided&amp;nbsp;&lt;br&gt;from&lt;br&gt;&lt;b&gt;&lt;u&gt;&lt;span style=&quot;font-size: 10pt ; font-family: &amp;#34;arial&amp;#34; , sans-serif&quot;&gt;Option Profile 1:&lt;br&gt;&lt;/span&gt;&lt;/u&gt;&lt;/b&gt;&lt;br&gt;API parameters:&lt;br&gt;&lt;b&gt;scanner_name&lt;/b&gt;,&lt;br&gt;&lt;b&gt;ips&lt;/b&gt;,&lt;br&gt;&lt;b&gt;option_id (opt1)&lt;/b&gt;&lt;br&gt;&lt;b&gt;scan_title&amp;nbsp;&lt;/b&gt;,&lt;br&gt;&lt;b&gt;scan_type&lt;br&gt;&lt;/b&gt;&lt;b style=&quot;color: rgb(255 , 51 , 51)&quot;&gt;instance_string&lt;/b&gt;&lt;span style=&quot;color: rgb(255 , 51 , 51)&quot;&gt;: ?&lt;/span&gt;&lt;b&gt;&lt;br&gt;&lt;/b&gt;" style="text;html=1;align=center;verticalAlign=middle;resizable=0;points=[];autosize=1;" parent="jjxk6rm0DJR1onn1oSPT-1" vertex="1">
          <mxGeometry x="420" y="242.5" width="130" height="190" as="geometry" />
        </mxCell>
        <mxCell id="jjxk6rm0DJR1onn1oSPT-38" value="" style="edgeStyle=orthogonalEdgeStyle;rounded=0;orthogonalLoop=1;jettySize=auto;html=1;" parent="jjxk6rm0DJR1onn1oSPT-1" source="jjxk6rm0DJR1onn1oSPT-36" target="jjxk6rm0DJR1onn1oSPT-16" edge="1">
          <mxGeometry relative="1" as="geometry">
            <Array as="points">
              <mxPoint x="760" y="202.5" />
              <mxPoint x="760" y="202.5" />
            </Array>
          </mxGeometry>
        </mxCell>
        <mxCell id="jjxk6rm0DJR1onn1oSPT-36" value="&lt;div&gt;&lt;b&gt;&lt;br&gt;&lt;/b&gt;&lt;/div&gt;&lt;div&gt;&lt;b&gt;&lt;br&gt;&lt;/b&gt;&lt;/div&gt;&lt;div&gt;Based on the&amp;nbsp;&lt;/div&gt;&lt;div&gt;webpath. policy id&amp;nbsp;&lt;/div&gt;&lt;div&gt;is decided from&lt;/div&gt;&lt;div&gt;&lt;b&gt;&lt;u&gt;&lt;span style=&quot;font-size: 10pt ; font-family: &amp;#34;arial&amp;#34; , sans-serif&quot;&gt;Policy 1:&lt;/span&gt;&lt;/u&gt;&lt;/b&gt;&lt;br&gt;&lt;/div&gt;&lt;div&gt;&lt;b&gt;&lt;u&gt;&lt;span style=&quot;font-size: 10pt ; font-family: &amp;#34;arial&amp;#34; , sans-serif&quot;&gt;&lt;br&gt;&lt;/span&gt;&lt;/u&gt;&lt;/b&gt;&lt;/div&gt;&lt;div&gt;API Parameters&lt;/div&gt;&lt;div&gt;&lt;b&gt;&#39;report_title&#39;,&lt;/b&gt;&lt;/div&gt;&lt;div&gt;&lt;span&gt;&lt;b&gt;echo_request&#39;,&lt;/b&gt;&lt;/span&gt;&lt;/div&gt;&lt;div&gt;&lt;span&gt;&lt;b&gt;&#39;report_refs&#39;,&lt;/b&gt;&lt;/span&gt;&lt;/div&gt;&lt;div&gt;&lt;span&gt;&lt;b&gt;&#39;output_format&#39;,&amp;nbsp;&lt;/b&gt;&lt;/span&gt;&lt;/div&gt;&lt;div&gt;&lt;b&gt;&#39;&lt;font color=&quot;#ff3333&quot;&gt;template_id&lt;/font&gt;&#39;,&lt;/b&gt;&lt;/div&gt;&lt;div&gt;&lt;b&gt;&lt;span&gt;&#39;ip_restriction&lt;/span&gt;&lt;span&gt;&#39;,&lt;/span&gt;&lt;/b&gt;&lt;/div&gt;&lt;div&gt;&lt;span&gt;&lt;b&gt;policy_id&#39;&amp;nbsp; (POL1)&lt;/b&gt;&lt;/span&gt;&lt;b&gt;:&lt;/b&gt;&lt;/div&gt;&lt;div&gt;&lt;b&gt;&lt;br&gt;&lt;/b&gt;&lt;/div&gt;&lt;div&gt;&lt;b&gt;&lt;br&gt;&lt;/b&gt;&lt;/div&gt;&lt;div&gt;&lt;b&gt;Add&amp;nbsp;&lt;/b&gt;&lt;/div&gt;instance_string&lt;br&gt;&lt;div&gt;&lt;b&gt;pending&amp;nbsp;&lt;/b&gt;&lt;b&gt;&amp;nbsp;&lt;/b&gt;&lt;/div&gt;&lt;div&gt;&lt;p class=&quot;MsoNormal&quot;&gt;&lt;br&gt;&lt;/p&gt;&lt;/div&gt;" style="text;html=1;align=center;verticalAlign=middle;resizable=0;points=[];autosize=1;" parent="jjxk6rm0DJR1onn1oSPT-1" vertex="1">
          <mxGeometry x="700" y="222.5" width="120" height="320" as="geometry" />
        </mxCell>
        <mxCell id="jjxk6rm0DJR1onn1oSPT-42" style="edgeStyle=orthogonalEdgeStyle;rounded=0;orthogonalLoop=1;jettySize=auto;html=1;" parent="jjxk6rm0DJR1onn1oSPT-1" source="jjxk6rm0DJR1onn1oSPT-41" edge="1">
          <mxGeometry relative="1" as="geometry">
            <mxPoint x="625" y="192.5" as="targetPoint" />
            <Array as="points">
              <mxPoint x="625" y="192.5" />
              <mxPoint x="625" y="192.5" />
            </Array>
          </mxGeometry>
        </mxCell>
        <mxCell id="jjxk6rm0DJR1onn1oSPT-41" value="Based on&lt;br&gt;&amp;nbsp;the webpath, opt2 id&amp;nbsp;&lt;br&gt;is decided from&lt;br&gt;&lt;b&gt;&lt;u&gt;&lt;span style=&quot;font-size: 10pt ; font-family: &amp;#34;arial&amp;#34; , sans-serif&quot;&gt;Option Profile 2:&lt;br&gt;&lt;/span&gt;&lt;/u&gt;&lt;/b&gt;&lt;br&gt;API parameters:&lt;br&gt;&lt;b&gt;scanner_name&lt;/b&gt;,&lt;br&gt;&lt;b&gt;ips&lt;/b&gt;,&lt;br&gt;&lt;b&gt;option_id (opt2)&lt;/b&gt;&lt;br&gt;&lt;b&gt;scan_title&amp;nbsp;&lt;/b&gt;,&lt;br&gt;&lt;b&gt;scan_type&lt;br&gt;&lt;br&gt;&lt;/b&gt;" style="text;html=1;align=center;verticalAlign=middle;resizable=0;points=[];autosize=1;" parent="jjxk6rm0DJR1onn1oSPT-1" vertex="1">
          <mxGeometry x="560" y="252.5" width="130" height="170" as="geometry" />
        </mxCell>
        <mxCell id="jjxk6rm0DJR1onn1oSPT-44" value="" style="edgeStyle=orthogonalEdgeStyle;rounded=0;orthogonalLoop=1;jettySize=auto;html=1;" parent="jjxk6rm0DJR1onn1oSPT-1" source="jjxk6rm0DJR1onn1oSPT-43" target="jjxk6rm0DJR1onn1oSPT-18" edge="1">
          <mxGeometry relative="1" as="geometry" />
        </mxCell>
        <mxCell id="jjxk6rm0DJR1onn1oSPT-43" value="&lt;div&gt;&lt;b&gt;&lt;br&gt;&lt;/b&gt;&lt;/div&gt;&lt;div&gt;&lt;b&gt;&lt;br&gt;&lt;/b&gt;&lt;/div&gt;&lt;div&gt;Based on the&amp;nbsp;&lt;/div&gt;&lt;div&gt;webpath. Policy id&lt;/div&gt;&lt;div&gt;is decided from&lt;/div&gt;&lt;div&gt;&lt;b&gt;&lt;u&gt;&lt;span style=&quot;font-size: 10pt ; font-family: &amp;#34;arial&amp;#34; , sans-serif&quot;&gt;Policy 2:&lt;/span&gt;&lt;/u&gt;&lt;/b&gt;&lt;br&gt;&lt;/div&gt;&lt;div&gt;&lt;b&gt;&lt;u&gt;&lt;span style=&quot;font-size: 10pt ; font-family: &amp;#34;arial&amp;#34; , sans-serif&quot;&gt;&lt;br&gt;&lt;/span&gt;&lt;/u&gt;&lt;/b&gt;&lt;/div&gt;&lt;div&gt;API Parameters&lt;/div&gt;&lt;div&gt;&lt;b&gt;&#39;report_title&#39;,&lt;/b&gt;&lt;/div&gt;&lt;div&gt;&lt;span&gt;&lt;b&gt;echo_request&#39;,&lt;/b&gt;&lt;/span&gt;&lt;/div&gt;&lt;div&gt;&lt;span&gt;&lt;b&gt;&#39;report_refs&#39;,&lt;/b&gt;&lt;/span&gt;&lt;/div&gt;&lt;div&gt;&lt;span&gt;&lt;b&gt;&#39;output_format&#39;,&amp;nbsp;&lt;/b&gt;&lt;/span&gt;&lt;/div&gt;&lt;div&gt;&lt;b&gt;&#39;&lt;font color=&quot;#ff3333&quot;&gt;template_id&lt;/font&gt;&#39;,&lt;/b&gt;&lt;/div&gt;&lt;div&gt;&lt;b&gt;&lt;span&gt;&#39;ip_restriction&lt;/span&gt;&lt;span&gt;&#39;,&lt;/span&gt;&lt;/b&gt;&lt;/div&gt;&lt;div&gt;&lt;span&gt;&lt;b&gt;policy_id&#39;&amp;nbsp; (POL2)&lt;/b&gt;&lt;/span&gt;&lt;b&gt;:&lt;/b&gt;&lt;/div&gt;&lt;div&gt;&lt;b&gt;&lt;br&gt;&lt;/b&gt;&lt;/div&gt;&lt;div&gt;&lt;b&gt;Add&amp;nbsp;&lt;/b&gt;&lt;/div&gt;instance_string&lt;br&gt;&lt;div&gt;&lt;b&gt;pending&amp;nbsp;&lt;/b&gt;&lt;b&gt;&amp;nbsp;&lt;/b&gt;&lt;/div&gt;" style="text;html=1;align=center;verticalAlign=middle;resizable=0;points=[];autosize=1;" parent="jjxk6rm0DJR1onn1oSPT-1" vertex="1">
          <mxGeometry x="850" y="217.5" width="120" height="270" as="geometry" />
        </mxCell>
        <mxCell id="l0pJUpO-Kfidr93NYYCC-2" value="api/2.0/fo/auth" style="text;html=1;align=center;verticalAlign=middle;resizable=0;points=[];autosize=1;" vertex="1" parent="jjxk6rm0DJR1onn1oSPT-1">
          <mxGeometry x="155" y="250" width="90" height="20" as="geometry" />
        </mxCell>
        <mxCell id="l0pJUpO-Kfidr93NYYCC-4" value="&lt;div style=&quot;font-family: &amp;#34;consolas&amp;#34; , &amp;#34;courier new&amp;#34; , monospace ; font-size: 14px ; line-height: 19px&quot;&gt;&lt;span style=&quot;background-color: rgb(255 , 255 , 255)&quot;&gt;/api/2.0/fo/scan/?action=launch&lt;/span&gt;&lt;br&gt;&lt;/div&gt;" style="text;html=1;align=center;verticalAlign=middle;resizable=0;points=[];autosize=1;" vertex="1" parent="jjxk6rm0DJR1onn1oSPT-1">
          <mxGeometry x="345" y="460" width="250" height="20" as="geometry" />
        </mxCell>
      </root>
    </mxGraphModel>
  </diagram>
</mxfile>
